# xmcd
#
# Track frame offsets:
#	150
#	13254
#	33718
#	45123
#	69106
#	84088
#	101345
#	116458
#	134897
#	152849
#	164865
#	175632
#	193352
#	219362
#	236705
#	256839
#	274488
#	308443
#	333217
#
# Disc length: 4627 seconds
#
# Revision: 1
# Processed by: cddbd v1.5.2PL0 Copyright (c) Steve Scherf et al.
# Submitted via: audiograbber 1.83.01
#
DISCID=04121113
DTITLE=Mississippi Fred McDowel - Live 1971
DYEAR=2014
DGENRE=Blues
TTITLE0=My Babe
TTITLE1=Louise
TTITLE2=Good Morning Little Schoolgirl
TTITLE3=John Henry
TTITLE4=The Sun Rose This Morning
TTITLE5=When I Lay My Burden Down
TTITLE6=Jesus Is On The Main Line
TTITLE7=You Got To Move
TTITLE8=Worried Blues
TTITLE9=Como, Mississippi Jump
TTITLE10=Going Away Baby
TTITLE11=Mojo Hand (Louisiana Blues)
TTITLE12=Lord I Wonder
TTITLE13=Kokomo Blues
TTITLE14=Write Me A Few Lines
TTITLE15=Someday Baby
TTITLE16=61 Highway
TTITLE17=Got A Letter This Morning
TTITLE18=Mississippi Fred's Shakedown
EXTD=
EXTT0=Willie Dixon
EXTT1=Johnnie Temple
EXTT2=John Lee "Sonny Boy" Williamson
EXTT3=trad arr McDowell
EXTT4=Fred McDowell
EXTT5=trad arr Fred McDowell
EXTT6=trad arr Fred McDowell
EXTT7=Fred McDowell - Gary Davis
EXTT8=Fred McDowell
EXTT9=Fred McDowell
EXTT10=Fred McDowell
EXTT11=trad arr Fred McDowell
EXTT12=Fred McDowell
EXTT13=trad arr Fred McDowell
EXTT14=Fred McDowell
EXTT15=trad arr Fred McDowell
EXTT16=trad arr Fred McDowell
EXTT17=Fred McDowell
EXTT18=Fred McDowell
PLAYORDER=
